<svg width="898" height="899" viewBox="0 0 898 899" fill="none" xmlns="http://www.w3.org/2000/svg">
<path fill-rule="evenodd" clip-rule="evenodd" d="M490.17 131.957H424.228V130.245H490.17C495.372 130.245 499.59 134.46 499.59 139.66V587.304H497.877V139.66C497.877 135.406 494.426 131.957 490.17 131.957Z" fill="black"/>
<path fill-rule="evenodd" clip-rule="evenodd" d="M704.266 194.439H402.819V192.727H704.266V194.439Z" fill="black"/>
<path fill-rule="evenodd" clip-rule="evenodd" d="M757.361 235.523H402.819V233.811H757.361V235.523Z" fill="black"/>
<path fill-rule="evenodd" clip-rule="evenodd" d="M803.606 310.843L365.138 310.843L365.138 309.132L803.606 309.132V310.843Z" fill="black"/>
<path fill-rule="evenodd" clip-rule="evenodd" d="M819.021 389.588L382.265 389.588V387.876L819.021 387.876V389.588Z" fill="black"/>
<path fill-rule="evenodd" clip-rule="evenodd" d="M808.744 428.96H402.819V427.248H808.744V428.96Z" fill="black"/>
<path fill-rule="evenodd" clip-rule="evenodd" d="M825.872 466.62L476.468 466.62V464.908L825.872 464.908V466.62Z" fill="black"/>
<path fill-rule="evenodd" clip-rule="evenodd" d="M819.021 545.364L514.148 545.364V543.653L819.021 543.653V545.364Z" fill="black"/>
<path fill-rule="evenodd" clip-rule="evenodd" d="M479.893 131.957L479.893 588.16H478.18L478.18 131.957H479.893Z" fill="black"/>
<path fill-rule="evenodd" clip-rule="evenodd" d="M640.893 159.346H452.489V157.634H640.893C646.096 157.634 650.313 161.85 650.313 167.05V653.21H648.601V167.05C648.601 162.795 645.15 159.346 640.893 159.346Z" fill="black"/>
<path d="M664.87 192.727C664.87 201.235 657.969 208.133 649.455 208.133C640.942 208.133 634.04 201.235 634.04 192.727C634.04 184.218 640.942 177.32 649.455 177.32C657.969 177.32 664.87 184.218 664.87 192.727Z" fill="#EF6312"/>
<path fill-rule="evenodd" clip-rule="evenodd" d="M649.455 206.421C657.023 206.421 663.157 200.29 663.157 192.727C663.157 185.163 657.023 179.032 649.455 179.032C641.888 179.032 635.753 185.163 635.753 192.727C635.753 200.29 641.888 206.421 649.455 206.421ZM649.455 208.133C657.969 208.133 664.87 201.235 664.87 192.727C664.87 184.218 657.969 177.32 649.455 177.32C640.942 177.32 634.04 184.218 634.04 192.727C634.04 201.235 640.942 208.133 649.455 208.133Z" fill="#EF6312"/>
<path d="M683.711 192.727C683.711 197.454 679.876 201.286 675.147 201.286C670.417 201.286 666.583 197.454 666.583 192.727C666.583 187.999 670.417 184.167 675.147 184.167C679.876 184.167 683.711 187.999 683.711 192.727Z" fill="#EF6312"/>
<path fill-rule="evenodd" clip-rule="evenodd" d="M675.147 199.574C678.93 199.574 681.998 196.508 681.998 192.727C681.998 188.945 678.93 185.879 675.147 185.879C671.363 185.879 668.296 188.945 668.296 192.727C668.296 196.508 671.363 199.574 675.147 199.574ZM675.147 201.286C679.876 201.286 683.711 197.454 683.711 192.727C683.711 187.999 679.876 184.167 675.147 184.167C670.417 184.167 666.583 187.999 666.583 192.727C666.583 197.454 670.417 201.286 675.147 201.286Z" fill="#EF6312"/>
<path d="M632.328 192.727C632.328 197.454 628.493 201.286 623.764 201.286C619.034 201.286 615.2 197.454 615.2 192.727C615.2 187.999 619.034 184.167 623.764 184.167C628.493 184.167 632.328 187.999 632.328 192.727Z" fill="#EF6312"/>
<path fill-rule="evenodd" clip-rule="evenodd" d="M623.764 199.574C627.547 199.574 630.615 196.508 630.615 192.727C630.615 188.945 627.547 185.879 623.764 185.879C619.98 185.879 616.913 188.945 616.913 192.727C616.913 196.508 619.98 199.574 623.764 199.574ZM623.764 201.286C628.493 201.286 632.328 197.454 632.328 192.727C632.328 187.999 628.493 184.167 623.764 184.167C619.034 184.167 615.2 187.999 615.2 192.727C615.2 197.454 619.034 201.286 623.764 201.286Z" fill="#EF6312"/>
<path d="M507.296 192.727C507.296 197.454 503.461 201.286 498.732 201.286C494.002 201.286 490.168 197.454 490.168 192.727C490.168 187.999 494.002 184.167 498.732 184.167C503.461 184.167 507.296 187.999 507.296 192.727Z" fill="#EF6312"/>
<path fill-rule="evenodd" clip-rule="evenodd" d="M498.732 199.574C502.516 199.574 505.583 196.508 505.583 192.727C505.583 188.945 502.516 185.879 498.732 185.879C494.948 185.879 491.881 188.945 491.881 192.727C491.881 196.508 494.948 199.574 498.732 199.574ZM498.732 201.286C503.461 201.286 507.296 197.454 507.296 192.727C507.296 187.999 503.461 184.167 498.732 184.167C494.002 184.167 490.168 187.999 490.168 192.727C490.168 197.454 494.002 201.286 498.732 201.286Z" fill="#EF6312"/>
<path d="M449.062 192.727C449.062 197.454 445.227 201.286 440.498 201.286C435.768 201.286 431.934 197.454 431.934 192.727C431.934 187.999 435.768 184.167 440.498 184.167C445.227 184.167 449.062 187.999 449.062 192.727Z" fill="#EF6312"/>
<path fill-rule="evenodd" clip-rule="evenodd" d="M440.498 199.574C444.281 199.574 447.349 196.508 447.349 192.727C447.349 188.945 444.281 185.879 440.498 185.879C436.714 185.879 433.647 188.945 433.647 192.727C433.647 196.508 436.714 199.574 440.498 199.574ZM440.498 201.286C445.227 201.286 449.062 197.454 449.062 192.727C449.062 187.999 445.227 184.167 440.498 184.167C435.768 184.167 431.934 187.999 431.934 192.727C431.934 197.454 435.768 201.286 440.498 201.286Z" fill="#EF6312"/>
<path d="M469.615 192.727C469.615 196.508 466.547 199.574 462.764 199.574C458.98 199.574 455.913 196.508 455.913 192.727C455.913 188.945 458.98 185.879 462.764 185.879C466.547 185.879 469.615 188.945 469.615 192.727Z" fill="#EF6312"/>
<path fill-rule="evenodd" clip-rule="evenodd" d="M462.764 197.862C465.601 197.862 467.902 195.563 467.902 192.727C467.902 189.89 465.601 187.591 462.764 187.591C459.926 187.591 457.625 189.89 457.625 192.727C457.625 195.563 459.926 197.862 462.764 197.862ZM462.764 199.574C466.547 199.574 469.615 196.508 469.615 192.727C469.615 188.945 466.547 185.879 462.764 185.879C458.98 185.879 455.913 188.945 455.913 192.727C455.913 196.508 458.98 199.574 462.764 199.574Z" fill="#EF6312"/>
<path d="M411.381 192.727C411.381 197.454 407.547 201.286 402.817 201.286C398.087 201.286 394.253 197.454 394.253 192.727C394.253 187.999 398.087 184.167 402.817 184.167C407.547 184.167 411.381 187.999 411.381 192.727Z" fill="#EF6312"/>
<path fill-rule="evenodd" clip-rule="evenodd" d="M402.817 199.574C406.601 199.574 409.668 196.508 409.668 192.727C409.668 188.945 406.601 185.879 402.817 185.879C399.033 185.879 395.966 188.945 395.966 192.727C395.966 196.508 399.033 199.574 402.817 199.574ZM402.817 201.286C407.547 201.286 411.381 197.454 411.381 192.727C411.381 187.999 407.547 184.167 402.817 184.167C398.087 184.167 394.253 187.999 394.253 192.727C394.253 197.454 398.087 201.286 402.817 201.286Z" fill="#EF6312"/>
<path d="M539.838 193.582C539.838 200.673 534.087 206.421 526.992 206.421C519.898 206.421 514.147 200.673 514.147 193.582C514.147 186.492 519.898 180.744 526.992 180.744C534.087 180.744 539.838 186.492 539.838 193.582Z" fill="#EF6312"/>
<path fill-rule="evenodd" clip-rule="evenodd" d="M526.992 204.709C533.141 204.709 538.125 199.728 538.125 193.582C538.125 187.437 533.141 182.456 526.992 182.456C520.844 182.456 515.859 187.437 515.859 193.582C515.859 199.728 520.844 204.709 526.992 204.709ZM526.992 206.421C534.087 206.421 539.838 200.673 539.838 193.582C539.838 186.492 534.087 180.744 526.992 180.744C519.898 180.744 514.147 186.492 514.147 193.582C514.147 200.673 519.898 206.421 526.992 206.421Z" fill="#EF6312"/>
<path d="M449.062 192.727C449.062 197.454 445.227 201.286 440.498 201.286C435.768 201.286 431.934 197.454 431.934 192.727C431.934 187.999 435.768 184.167 440.498 184.167C445.227 184.167 449.062 187.999 449.062 192.727Z" fill="#EF6312"/>
<path fill-rule="evenodd" clip-rule="evenodd" d="M440.498 199.574C444.281 199.574 447.349 196.508 447.349 192.727C447.349 188.945 444.281 185.879 440.498 185.879C436.714 185.879 433.647 188.945 433.647 192.727C433.647 196.508 436.714 199.574 440.498 199.574ZM440.498 201.286C445.227 201.286 449.062 197.454 449.062 192.727C449.062 187.999 445.227 184.167 440.498 184.167C435.768 184.167 431.934 187.999 431.934 192.727C431.934 197.454 435.768 201.286 440.498 201.286Z" fill="#EF6312"/>
<path d="M507.296 233.811C507.296 238.538 503.461 242.37 498.732 242.37C494.002 242.37 490.168 238.538 490.168 233.811C490.168 229.083 494.002 225.251 498.732 225.251C503.461 225.251 507.296 229.083 507.296 233.811Z" fill="#EF6312"/>
<path fill-rule="evenodd" clip-rule="evenodd" d="M498.732 240.658C502.516 240.658 505.583 237.592 505.583 233.811C505.583 230.029 502.516 226.963 498.732 226.963C494.948 226.963 491.881 230.029 491.881 233.811C491.881 237.592 494.948 240.658 498.732 240.658ZM498.732 242.37C503.461 242.37 507.296 238.538 507.296 233.811C507.296 229.083 503.461 225.251 498.732 225.251C494.002 225.251 490.168 229.083 490.168 233.811C490.168 238.538 494.002 242.37 498.732 242.37Z" fill="#EF6312"/>
<path d="M457.625 232.955C457.625 240.991 451.107 247.505 443.067 247.505C435.026 247.505 428.508 240.991 428.508 232.955C428.508 224.919 435.026 218.404 443.067 218.404C451.107 218.404 457.625 224.919 457.625 232.955Z" fill="#EF6312"/>
<path fill-rule="evenodd" clip-rule="evenodd" d="M443.067 245.793C450.161 245.793 455.913 240.045 455.913 232.955C455.913 225.864 450.161 220.116 443.067 220.116C435.972 220.116 430.221 225.864 430.221 232.955C430.221 240.045 435.972 245.793 443.067 245.793ZM443.067 247.505C451.107 247.505 457.625 240.991 457.625 232.955C457.625 224.919 451.107 218.404 443.067 218.404C435.026 218.404 428.508 224.919 428.508 232.955C428.508 240.991 435.026 247.505 443.067 247.505Z" fill="#EF6312"/>
<path d="M413.093 233.811C413.093 238.538 409.259 242.37 404.53 242.37C399.8 242.37 395.966 238.538 395.966 233.811C395.966 229.083 399.8 225.251 404.53 225.251C409.259 225.251 413.093 229.083 413.093 233.811Z" fill="#EF6312"/>
<path fill-rule="evenodd" clip-rule="evenodd" d="M404.53 240.658C408.313 240.658 411.381 237.592 411.381 233.811C411.381 230.029 408.313 226.963 404.53 226.963C400.746 226.963 397.679 230.029 397.679 233.811C397.679 237.592 400.746 240.658 404.53 240.658ZM404.53 242.37C409.259 242.37 413.093 238.538 413.093 233.811C413.093 229.083 409.259 225.251 404.53 225.251C399.8 225.251 395.966 229.083 395.966 233.811C395.966 238.538 399.8 242.37 404.53 242.37Z" fill="#EF6312"/>
<path d="M539.838 231.243C539.838 238.333 534.087 244.081 526.992 244.081C519.898 244.081 514.147 238.333 514.147 231.243C514.147 224.152 519.898 218.404 526.992 218.404C534.087 218.404 539.838 224.152 539.838 231.243Z" fill="#EF6312"/>
<path fill-rule="evenodd" clip-rule="evenodd" d="M526.992 242.37C533.141 242.37 538.125 237.388 538.125 231.243C538.125 225.098 533.141 220.116 526.992 220.116C520.844 220.116 515.859 225.098 515.859 231.243C515.859 237.388 520.844 242.37 526.992 242.37ZM526.992 244.081C534.087 244.081 539.838 238.333 539.838 231.243C539.838 224.152 534.087 218.404 526.992 218.404C519.898 218.404 514.147 224.152 514.147 231.243C514.147 238.333 519.898 244.081 526.992 244.081Z" fill="#EF6312"/>
<path d="M664.87 310.843C664.87 319.352 657.969 326.249 649.455 326.249C640.942 326.249 634.04 319.352 634.04 310.843C634.04 302.334 640.942 295.436 649.455 295.436C657.969 295.436 664.87 302.334 664.87 310.843Z" fill="#EF6312"/>
<path fill-rule="evenodd" clip-rule="evenodd" d="M649.455 324.538C657.023 324.538 663.157 318.406 663.157 310.843C663.157 303.28 657.023 297.148 649.455 297.148C641.888 297.148 635.753 303.28 635.753 310.843C635.753 318.406 641.888 324.538 649.455 324.538ZM649.455 326.249C657.969 326.249 664.87 319.352 664.87 310.843C664.87 302.334 657.969 295.436 649.455 295.436C640.942 295.436 634.04 302.334 634.04 310.843C634.04 319.352 640.942 326.249 649.455 326.249Z" fill="#EF6312"/>
<path d="M683.711 310.843C683.711 315.57 679.876 319.402 675.147 319.402C670.417 319.402 666.583 315.57 666.583 310.843C666.583 306.116 670.417 302.284 675.147 302.284C679.876 302.284 683.711 306.116 683.711 310.843Z" fill="#EF6312"/>
<path fill-rule="evenodd" clip-rule="evenodd" d="M675.147 317.69C678.93 317.69 681.998 314.625 681.998 310.843C681.998 307.061 678.93 303.996 675.147 303.996C671.363 303.996 668.296 307.061 668.296 310.843C668.296 314.625 671.363 317.69 675.147 317.69ZM675.147 319.402C679.876 319.402 683.711 315.57 683.711 310.843C683.711 306.116 679.876 302.284 675.147 302.284C670.417 302.284 666.583 306.116 666.583 310.843C666.583 315.57 670.417 319.402 675.147 319.402Z" fill="#EF6312"/>
<path d="M632.328 310.843C632.328 315.57 628.493 319.402 623.764 319.402C619.034 319.402 615.2 315.57 615.2 310.843C615.2 306.116 619.034 302.284 623.764 302.284C628.493 302.284 632.328 306.116 632.328 310.843Z" fill="#EF6312"/>
<path fill-rule="evenodd" clip-rule="evenodd" d="M623.764 317.69C627.547 317.69 630.615 314.625 630.615 310.843C630.615 307.061 627.547 303.996 623.764 303.996C619.98 303.996 616.913 307.061 616.913 310.843C616.913 314.625 619.98 317.69 623.764 317.69ZM623.764 319.402C628.493 319.402 632.328 315.57 632.328 310.843C632.328 306.116 628.493 302.284 623.764 302.284C619.034 302.284 615.2 306.116 615.2 310.843C615.2 315.57 619.034 319.402 623.764 319.402Z" fill="#EF6312"/>
<path d="M512.434 308.275C512.434 316.311 505.916 322.826 497.875 322.826C489.835 322.826 483.317 316.311 483.317 308.275C483.317 300.239 489.835 293.725 497.875 293.725C505.916 293.725 512.434 300.239 512.434 308.275Z" fill="#EF6312"/>
<path fill-rule="evenodd" clip-rule="evenodd" d="M497.875 321.114C504.97 321.114 510.721 315.366 510.721 308.275C510.721 301.185 504.97 295.436 497.875 295.436C490.781 295.436 485.03 301.185 485.03 308.275C485.03 315.366 490.781 321.114 497.875 321.114ZM497.875 322.826C505.916 322.826 512.434 316.311 512.434 308.275C512.434 300.239 505.916 293.725 497.875 293.725C489.835 293.725 483.317 300.239 483.317 308.275C483.317 316.311 489.835 322.826 497.875 322.826Z" fill="#EF6312"/>
<path d="M431.934 308.275C431.934 312.53 428.483 315.978 424.226 315.978C419.97 315.978 416.519 312.53 416.519 308.275C416.519 304.021 419.97 300.572 424.226 300.572C428.483 300.572 431.934 304.021 431.934 308.275Z" fill="#EF6312"/>
<path fill-rule="evenodd" clip-rule="evenodd" d="M424.226 314.267C427.537 314.267 430.221 311.584 430.221 308.275C430.221 304.966 427.537 302.284 424.226 302.284C420.916 302.284 418.232 304.966 418.232 308.275C418.232 311.584 420.916 314.267 424.226 314.267ZM424.226 315.978C428.483 315.978 431.934 312.53 431.934 308.275C431.934 304.021 428.483 300.572 424.226 300.572C419.97 300.572 416.519 304.021 416.519 308.275C416.519 312.53 419.97 315.978 424.226 315.978Z" fill="#EF6312"/>
<path d="M414.806 309.131C414.806 314.804 410.205 319.402 404.53 319.402C398.854 319.402 394.253 314.804 394.253 309.131C394.253 303.459 398.854 298.86 404.53 298.86C410.205 298.86 414.806 303.459 414.806 309.131Z" fill="#EF6312"/>
<path fill-rule="evenodd" clip-rule="evenodd" d="M404.53 317.69C409.259 317.69 413.093 313.858 413.093 309.131C413.093 304.404 409.259 300.572 404.53 300.572C399.8 300.572 395.966 304.404 395.966 309.131C395.966 313.858 399.8 317.69 404.53 317.69ZM404.53 319.402C410.205 319.402 414.806 314.804 414.806 309.131C414.806 303.459 410.205 298.86 404.53 298.86C398.854 298.86 394.253 303.459 394.253 309.131C394.253 314.804 398.854 319.402 404.53 319.402Z" fill="#EF6312"/>
<path d="M536.413 308.275C536.413 314.42 531.428 319.402 525.28 319.402C519.131 319.402 514.147 314.42 514.147 308.275C514.147 302.13 519.131 297.148 525.28 297.148C531.428 297.148 536.413 302.13 536.413 308.275Z" fill="#EF6312"/>
<path fill-rule="evenodd" clip-rule="evenodd" d="M525.28 317.69C530.482 317.69 534.7 313.475 534.7 308.275C534.7 303.075 530.482 298.86 525.28 298.86C520.077 298.86 515.859 303.075 515.859 308.275C515.859 313.475 520.077 317.69 525.28 317.69ZM525.28 319.402C531.428 319.402 536.413 314.42 536.413 308.275C536.413 302.13 531.428 297.148 525.28 297.148C519.131 297.148 514.147 302.13 514.147 308.275C514.147 314.42 519.131 319.402 525.28 319.402Z" fill="#EF6312"/>
<path d="M664.87 387.875C664.87 396.384 657.969 403.282 649.455 403.282C640.942 403.282 634.04 396.384 634.04 387.875C634.04 379.367 640.942 372.469 649.455 372.469C657.969 372.469 664.87 379.367 664.87 387.875Z" fill="#EF6312"/>
<path fill-rule="evenodd" clip-rule="evenodd" d="M649.455 401.57C657.023 401.57 663.157 395.439 663.157 387.875C663.157 380.312 657.023 374.181 649.455 374.181C641.888 374.181 635.753 380.312 635.753 387.875C635.753 395.439 641.888 401.57 649.455 401.57ZM649.455 403.282C657.969 403.282 664.87 396.384 664.87 387.875C664.87 379.367 657.969 372.469 649.455 372.469C640.942 372.469 634.04 379.367 634.04 387.875C634.04 396.384 640.942 403.282 649.455 403.282Z" fill="#EF6312"/>
<path d="M683.711 387.875C683.711 392.602 679.876 396.435 675.147 396.435C670.417 396.435 666.583 392.602 666.583 387.875C666.583 383.148 670.417 379.316 675.147 379.316C679.876 379.316 683.711 383.148 683.711 387.875Z" fill="#EF6312"/>
<path fill-rule="evenodd" clip-rule="evenodd" d="M675.147 394.723C678.93 394.723 681.998 391.657 681.998 387.875C681.998 384.094 678.93 381.028 675.147 381.028C671.363 381.028 668.296 384.094 668.296 387.875C668.296 391.657 671.363 394.723 675.147 394.723ZM675.147 396.435C679.876 396.435 683.711 392.602 683.711 387.875C683.711 383.148 679.876 379.316 675.147 379.316C670.417 379.316 666.583 383.148 666.583 387.875C666.583 392.602 670.417 396.435 675.147 396.435Z" fill="#EF6312"/>
<path d="M632.328 387.875C632.328 392.602 628.493 396.435 623.764 396.435C619.034 396.435 615.2 392.602 615.2 387.875C615.2 383.148 619.034 379.316 623.764 379.316C628.493 379.316 632.328 383.148 632.328 387.875Z" fill="#EF6312"/>
<path fill-rule="evenodd" clip-rule="evenodd" d="M623.764 394.723C627.547 394.723 630.615 391.657 630.615 387.875C630.615 384.094 627.547 381.028 623.764 381.028C619.98 381.028 616.913 384.094 616.913 387.875C616.913 391.657 619.98 394.723 623.764 394.723ZM623.764 396.435C628.493 396.435 632.328 392.602 632.328 387.875C632.328 383.148 628.493 379.316 623.764 379.316C619.034 379.316 615.2 383.148 615.2 387.875C615.2 392.602 619.034 396.435 623.764 396.435Z" fill="#EF6312"/>
<path d="M539.838 385.308C539.838 392.398 534.087 398.146 526.992 398.146C519.898 398.146 514.147 392.398 514.147 385.308C514.147 378.217 519.898 372.469 526.992 372.469C534.087 372.469 539.838 378.217 539.838 385.308Z" fill="#EF6312"/>
<path fill-rule="evenodd" clip-rule="evenodd" d="M526.992 396.435C533.141 396.435 538.125 391.453 538.125 385.308C538.125 379.162 533.141 374.181 526.992 374.181C520.844 374.181 515.859 379.162 515.859 385.308C515.859 391.453 520.844 396.435 526.992 396.435ZM526.992 398.146C534.087 398.146 539.838 392.398 539.838 385.308C539.838 378.217 534.087 372.469 526.992 372.469C519.898 372.469 514.147 378.217 514.147 385.308C514.147 392.398 519.898 398.146 526.992 398.146Z" fill="#EF6312"/>
<path d="M467.902 388.731C467.902 396.767 461.384 403.282 453.343 403.282C445.303 403.282 438.785 396.767 438.785 388.731C438.785 380.695 445.303 374.181 453.343 374.181C461.384 374.181 467.902 380.695 467.902 388.731Z" fill="#EF6312"/>
<path fill-rule="evenodd" clip-rule="evenodd" d="M453.343 401.57C460.438 401.57 466.189 395.822 466.189 388.731C466.189 381.641 460.438 375.893 453.343 375.893C446.249 375.893 440.498 381.641 440.498 388.731C440.498 395.822 446.249 401.57 453.343 401.57ZM453.343 403.282C461.384 403.282 467.902 396.767 467.902 388.731C467.902 380.695 461.384 374.181 453.343 374.181C445.303 374.181 438.785 380.695 438.785 388.731C438.785 396.767 445.303 403.282 453.343 403.282Z" fill="#EF6312"/>
<path d="M664.87 427.248C664.87 435.756 657.969 442.654 649.455 442.654C640.942 442.654 634.04 435.756 634.04 427.248C634.04 418.739 640.942 411.841 649.455 411.841C657.969 411.841 664.87 418.739 664.87 427.248Z" fill="#EF6312"/>
<path fill-rule="evenodd" clip-rule="evenodd" d="M649.455 440.942C657.023 440.942 663.157 434.811 663.157 427.248C663.157 419.684 657.023 413.553 649.455 413.553C641.888 413.553 635.753 419.684 635.753 427.248C635.753 434.811 641.888 440.942 649.455 440.942ZM649.455 442.654C657.969 442.654 664.87 435.756 664.87 427.248C664.87 418.739 657.969 411.841 649.455 411.841C640.942 411.841 634.04 418.739 634.04 427.248C634.04 435.756 640.942 442.654 649.455 442.654Z" fill="#EF6312"/>
<path d="M683.711 427.248C683.711 431.975 679.876 435.807 675.147 435.807C670.417 435.807 666.583 431.975 666.583 427.248C666.583 422.52 670.417 418.688 675.147 418.688C679.876 418.688 683.711 422.52 683.711 427.248Z" fill="#EF6312"/>
<path fill-rule="evenodd" clip-rule="evenodd" d="M675.147 434.095C678.93 434.095 681.998 431.029 681.998 427.248C681.998 423.466 678.93 420.4 675.147 420.4C671.363 420.4 668.296 423.466 668.296 427.248C668.296 431.029 671.363 434.095 675.147 434.095ZM675.147 435.807C679.876 435.807 683.711 431.975 683.711 427.248C683.711 422.52 679.876 418.688 675.147 418.688C670.417 418.688 666.583 422.52 666.583 427.248C666.583 431.975 670.417 435.807 675.147 435.807Z" fill="#EF6312"/>
<path d="M632.328 427.248C632.328 431.975 628.493 435.807 623.764 435.807C619.034 435.807 615.2 431.975 615.2 427.248C615.2 422.52 619.034 418.688 623.764 418.688C628.493 418.688 632.328 422.52 632.328 427.248Z" fill="#EF6312"/>
<path fill-rule="evenodd" clip-rule="evenodd" d="M623.764 434.095C627.547 434.095 630.615 431.029 630.615 427.248C630.615 423.466 627.547 420.4 623.764 420.4C619.98 420.4 616.913 423.466 616.913 427.248C616.913 431.029 619.98 434.095 623.764 434.095ZM623.764 435.807C628.493 435.807 632.328 431.975 632.328 427.248C632.328 422.52 628.493 418.688 623.764 418.688C619.034 418.688 615.2 422.52 615.2 427.248C615.2 431.975 619.034 435.807 623.764 435.807Z" fill="#EF6312"/>
<path d="M488.455 427.248C488.455 432.92 483.854 437.519 478.179 437.519C472.503 437.519 467.902 432.92 467.902 427.248C467.902 421.575 472.503 416.977 478.179 416.977C483.854 416.977 488.455 421.575 488.455 427.248Z" fill="#EF6312"/>
<path fill-rule="evenodd" clip-rule="evenodd" d="M478.179 435.807C482.908 435.807 486.742 431.975 486.742 427.248C486.742 422.52 482.908 418.688 478.179 418.688C473.449 418.688 469.615 422.52 469.615 427.248C469.615 431.975 473.449 435.807 478.179 435.807ZM478.179 437.519C483.854 437.519 488.455 432.92 488.455 427.248C488.455 421.575 483.854 416.977 478.179 416.977C472.503 416.977 467.902 421.575 467.902 427.248C467.902 432.92 472.503 437.519 478.179 437.519Z" fill="#EF6312"/>
<path d="M411.381 427.248C411.381 431.975 407.547 435.807 402.817 435.807C398.087 435.807 394.253 431.975 394.253 427.248C394.253 422.52 398.087 418.688 402.817 418.688C407.547 418.688 411.381 422.52 411.381 427.248Z" fill="#EF6312"/>
<path fill-rule="evenodd" clip-rule="evenodd" d="M402.817 434.095C406.601 434.095 409.668 431.029 409.668 427.248C409.668 423.466 406.601 420.4 402.817 420.4C399.033 420.4 395.966 423.466 395.966 427.248C395.966 431.029 399.033 434.095 402.817 434.095ZM402.817 435.807C407.547 435.807 411.381 431.975 411.381 427.248C411.381 422.52 407.547 418.688 402.817 418.688C398.087 418.688 394.253 422.52 394.253 427.248C394.253 431.975 398.087 435.807 402.817 435.807Z" fill="#EF6312"/>
<path d="M539.838 428.103C539.838 435.194 534.087 440.942 526.992 440.942C519.898 440.942 514.147 435.194 514.147 428.103C514.147 421.013 519.898 415.265 526.992 415.265C534.087 415.265 539.838 421.013 539.838 428.103Z" fill="#EF6312"/>
<path fill-rule="evenodd" clip-rule="evenodd" d="M526.992 439.23C533.141 439.23 538.125 434.249 538.125 428.103C538.125 421.958 533.141 416.977 526.992 416.977C520.844 416.977 515.859 421.958 515.859 428.103C515.859 434.249 520.844 439.23 526.992 439.23ZM526.992 440.942C534.087 440.942 539.838 435.194 539.838 428.103C539.838 421.013 534.087 415.265 526.992 415.265C519.898 415.265 514.147 421.013 514.147 428.103C514.147 435.194 519.898 440.942 526.992 440.942Z" fill="#EF6312"/>
<path d="M437.072 427.248C437.072 431.975 433.238 435.807 428.508 435.807C423.779 435.807 419.945 431.975 419.945 427.248C419.945 422.52 423.779 418.688 428.508 418.688C433.238 418.688 437.072 422.52 437.072 427.248Z" fill="#EF6312"/>
<path fill-rule="evenodd" clip-rule="evenodd" d="M428.508 434.095C432.292 434.095 435.359 431.029 435.359 427.248C435.359 423.466 432.292 420.4 428.508 420.4C424.725 420.4 421.657 423.466 421.657 427.248C421.657 431.029 424.725 434.095 428.508 434.095ZM428.508 435.807C433.238 435.807 437.072 431.975 437.072 427.248C437.072 422.52 433.238 418.688 428.508 418.688C423.779 418.688 419.945 422.52 419.945 427.248C419.945 431.975 423.779 435.807 428.508 435.807Z" fill="#EF6312"/>
<path d="M664.87 464.908C664.87 473.417 657.969 480.314 649.455 480.314C640.942 480.314 634.04 473.417 634.04 464.908C634.04 456.399 640.942 449.501 649.455 449.501C657.969 449.501 664.87 456.399 664.87 464.908Z" fill="#EF6312"/>
<path fill-rule="evenodd" clip-rule="evenodd" d="M649.455 478.602C657.023 478.602 663.157 472.471 663.157 464.908C663.157 457.344 657.023 451.213 649.455 451.213C641.888 451.213 635.753 457.344 635.753 464.908C635.753 472.471 641.888 478.602 649.455 478.602ZM649.455 480.314C657.969 480.314 664.87 473.417 664.87 464.908C664.87 456.399 657.969 449.501 649.455 449.501C640.942 449.501 634.04 456.399 634.04 464.908C634.04 473.417 640.942 480.314 649.455 480.314Z" fill="#EF6312"/>
<path d="M683.711 464.908C683.711 469.635 679.876 473.467 675.147 473.467C670.417 473.467 666.583 469.635 666.583 464.908C666.583 460.181 670.417 456.349 675.147 456.349C679.876 456.349 683.711 460.181 683.711 464.908Z" fill="#EF6312"/>
<path fill-rule="evenodd" clip-rule="evenodd" d="M675.147 471.755C678.93 471.755 681.998 468.69 681.998 464.908C681.998 461.126 678.93 458.061 675.147 458.061C671.363 458.061 668.296 461.126 668.296 464.908C668.296 468.69 671.363 471.755 675.147 471.755ZM675.147 473.467C679.876 473.467 683.711 469.635 683.711 464.908C683.711 460.181 679.876 456.349 675.147 456.349C670.417 456.349 666.583 460.181 666.583 464.908C666.583 469.635 670.417 473.467 675.147 473.467Z" fill="#EF6312"/>
<path d="M632.328 464.908C632.328 469.635 628.493 473.467 623.764 473.467C619.034 473.467 615.2 469.635 615.2 464.908C615.2 460.181 619.034 456.349 623.764 456.349C628.493 456.349 632.328 460.181 632.328 464.908Z" fill="#EF6312"/>
<path fill-rule="evenodd" clip-rule="evenodd" d="M623.764 471.755C627.547 471.755 630.615 468.69 630.615 464.908C630.615 461.126 627.547 458.061 623.764 458.061C619.98 458.061 616.913 461.126 616.913 464.908C616.913 468.69 619.98 471.755 623.764 471.755ZM623.764 473.467C628.493 473.467 632.328 469.635 632.328 464.908C632.328 460.181 628.493 456.349 623.764 456.349C619.034 456.349 615.2 460.181 615.2 464.908C615.2 469.635 619.034 473.467 623.764 473.467Z" fill="#EF6312"/>
<path d="M664.87 543.652C664.87 552.161 657.969 559.059 649.455 559.059C640.942 559.059 634.04 552.161 634.04 543.652C634.04 535.143 640.942 528.246 649.455 528.246C657.969 528.246 664.87 535.143 664.87 543.652Z" fill="#EF6312"/>
<path fill-rule="evenodd" clip-rule="evenodd" d="M649.455 557.347C657.023 557.347 663.157 551.215 663.157 543.652C663.157 536.089 657.023 529.957 649.455 529.957C641.888 529.957 635.753 536.089 635.753 543.652C635.753 551.215 641.888 557.347 649.455 557.347ZM649.455 559.059C657.969 559.059 664.87 552.161 664.87 543.652C664.87 535.143 657.969 528.246 649.455 528.246C640.942 528.246 634.04 535.143 634.04 543.652C634.04 552.161 640.942 559.059 649.455 559.059Z" fill="#EF6312"/>
<path d="M683.711 543.652C683.711 548.379 679.876 552.211 675.147 552.211C670.417 552.211 666.583 548.379 666.583 543.652C666.583 538.925 670.417 535.093 675.147 535.093C679.876 535.093 683.711 538.925 683.711 543.652Z" fill="#EF6312"/>
<path fill-rule="evenodd" clip-rule="evenodd" d="M675.147 550.499C678.93 550.499 681.998 547.434 681.998 543.652C681.998 539.87 678.93 536.805 675.147 536.805C671.363 536.805 668.296 539.87 668.296 543.652C668.296 547.434 671.363 550.499 675.147 550.499ZM675.147 552.211C679.876 552.211 683.711 548.379 683.711 543.652C683.711 538.925 679.876 535.093 675.147 535.093C670.417 535.093 666.583 538.925 666.583 543.652C666.583 548.379 670.417 552.211 675.147 552.211Z" fill="#EF6312"/>
<path d="M632.328 543.652C632.328 548.379 628.493 552.211 623.764 552.211C619.034 552.211 615.2 548.379 615.2 543.652C615.2 538.925 619.034 535.093 623.764 535.093C628.493 535.093 632.328 538.925 632.328 543.652Z" fill="#EF6312"/>
<path fill-rule="evenodd" clip-rule="evenodd" d="M623.764 550.499C627.547 550.499 630.615 547.434 630.615 543.652C630.615 539.87 627.547 536.805 623.764 536.805C619.98 536.805 616.913 539.87 616.913 543.652C616.913 547.434 619.98 550.499 623.764 550.499ZM623.764 552.211C628.493 552.211 632.328 548.379 632.328 543.652C632.328 538.925 628.493 535.093 623.764 535.093C619.034 535.093 615.2 538.925 615.2 543.652C615.2 548.379 619.034 552.211 623.764 552.211Z" fill="#EF6312"/>
<path d="M632.328 617.261C632.328 621.988 628.493 625.82 623.764 625.82C619.034 625.82 615.2 621.988 615.2 617.261C615.2 612.534 619.034 608.702 623.764 608.702C628.493 608.702 632.328 612.534 632.328 617.261Z" fill="#EF6312"/>
<path fill-rule="evenodd" clip-rule="evenodd" d="M623.764 624.108C627.547 624.108 630.615 621.043 630.615 617.261C630.615 613.479 627.547 610.414 623.764 610.414C619.98 610.414 616.913 613.479 616.913 617.261C616.913 621.043 619.98 624.108 623.764 624.108ZM623.764 625.82C628.493 625.82 632.328 621.988 632.328 617.261C632.328 612.534 628.493 608.702 623.764 608.702C619.034 608.702 615.2 612.534 615.2 617.261C615.2 621.988 619.034 625.82 623.764 625.82Z" fill="#EF6312"/>
<path d="M435.359 131.956C435.359 138.102 430.375 143.083 424.226 143.083C418.078 143.083 413.093 138.102 413.093 131.956C413.093 125.811 418.078 120.83 424.226 120.83C430.375 120.83 435.359 125.811 435.359 131.956Z" fill="#EF6312"/>
<path fill-rule="evenodd" clip-rule="evenodd" d="M424.226 141.372C429.429 141.372 433.647 137.156 433.647 131.956C433.647 126.757 429.429 122.541 424.226 122.541C419.024 122.541 414.806 126.757 414.806 131.956C414.806 137.156 419.024 141.372 424.226 141.372ZM424.226 143.083C430.375 143.083 435.359 138.102 435.359 131.956C435.359 125.811 430.375 120.83 424.226 120.83C418.078 120.83 413.093 125.811 413.093 131.956C413.093 138.102 418.078 143.083 424.226 143.083Z" fill="#EF6312"/>
<path d="M461.051 157.634C461.051 161.888 457.6 165.337 453.343 165.337C449.087 165.337 445.636 161.888 445.636 157.634C445.636 153.38 449.087 149.931 453.343 149.931C457.6 149.931 461.051 153.38 461.051 157.634Z" fill="#EF6312"/>
<path fill-rule="evenodd" clip-rule="evenodd" d="M453.343 163.625C456.654 163.625 459.338 160.943 459.338 157.634C459.338 154.325 456.654 151.643 453.343 151.643C450.033 151.643 447.349 154.325 447.349 157.634C447.349 160.943 450.033 163.625 453.343 163.625ZM453.343 165.337C457.6 165.337 461.051 161.888 461.051 157.634C461.051 153.38 457.6 149.931 453.343 149.931C449.087 149.931 445.636 153.38 445.636 157.634C445.636 161.888 449.087 165.337 453.343 165.337Z" fill="#EF6312"/>
<path d="M371.987 309.131C371.987 315.749 366.619 321.114 359.998 321.114C353.376 321.114 348.008 315.749 348.008 309.131C348.008 302.513 353.376 297.148 359.998 297.148C366.619 297.148 371.987 302.513 371.987 309.131Z" fill="#EF6312"/>
<path fill-rule="evenodd" clip-rule="evenodd" d="M359.998 319.402C365.673 319.402 370.274 314.804 370.274 309.131C370.274 303.459 365.673 298.86 359.998 298.86C354.322 298.86 349.721 303.459 349.721 309.131C349.721 314.804 354.322 319.402 359.998 319.402ZM359.998 321.114C366.619 321.114 371.987 315.749 371.987 309.131C371.987 302.513 366.619 297.148 359.998 297.148C353.376 297.148 348.008 302.513 348.008 309.131C348.008 315.749 353.376 321.114 359.998 321.114Z" fill="#EF6312"/>
<path d="M385.689 387.875C385.689 392.602 381.855 396.435 377.125 396.435C372.396 396.435 368.562 392.602 368.562 387.875C368.562 383.148 372.396 379.316 377.125 379.316C381.855 379.316 385.689 383.148 385.689 387.875Z" fill="#EF6312"/>
<path fill-rule="evenodd" clip-rule="evenodd" d="M377.125 394.723C380.909 394.723 383.976 391.657 383.976 387.875C383.976 384.094 380.909 381.028 377.125 381.028C373.342 381.028 370.274 384.094 370.274 387.875C370.274 391.657 373.342 394.723 377.125 394.723ZM377.125 396.435C381.855 396.435 385.689 392.602 385.689 387.875C385.689 383.148 381.855 379.316 377.125 379.316C372.396 379.316 368.562 383.148 368.562 387.875C368.562 392.602 372.396 396.435 377.125 396.435Z" fill="#EF6312"/>
<path d="M772.774 425.536C772.774 434.044 765.873 440.942 757.36 440.942C748.846 440.942 741.945 434.044 741.945 425.536C741.945 417.027 748.846 410.129 757.36 410.129C765.873 410.129 772.774 417.027 772.774 425.536Z" fill="#EF6312"/>
<path fill-rule="evenodd" clip-rule="evenodd" d="M757.36 439.23C764.927 439.23 771.062 433.099 771.062 425.536C771.062 417.972 764.927 411.841 757.36 411.841C749.792 411.841 743.657 417.972 743.657 425.536C743.657 433.099 749.792 439.23 757.36 439.23ZM757.36 440.942C765.873 440.942 772.774 434.044 772.774 425.536C772.774 417.027 765.873 410.129 757.36 410.129C748.846 410.129 741.945 417.027 741.945 425.536C741.945 434.044 748.846 440.942 757.36 440.942Z" fill="#EF6312"/>
<path d="M689 724.5C558.83 659.45 443.355 753.065 408.814 805.561L391.686 802.138C499.933 653.551 647.121 679.263 702.5 713.5L689 724.5Z" fill="black"/>
<path d="M382.266 680.597C362.398 692.922 342.587 756.203 336.021 784.163L346.298 788.443C342.187 763.792 370.848 703.992 385.692 678.03L382.266 680.597Z" fill="black"/>
<path d="M342.016 716.546C341.803 716.623 341.576 716.719 341.335 716.835C336.289 720.519 319.17 755.943 312.043 773.036L305.192 769.613C316.444 737.859 334.463 720.117 341.335 716.835C341.595 716.645 341.823 716.546 342.016 716.546Z" fill="black"/>
<path d="M396.825 673.75C374.05 696.511 357.716 760.768 354.005 791.01L366.5 794.5C366.5 741.776 389.117 691.439 401.106 675.462L410.527 663.479C402.819 666.903 403.676 666.903 396.825 673.75Z" fill="black"/>
<path d="M429.367 656.632C403.333 661.425 383.095 734.235 378.813 761.053L396.825 737.944C391.344 717.402 416.236 673.75 429.367 656.632Z" fill="black"/>
<path d="M431.08 661.767C416.693 674.092 413.096 703.422 413.096 716.546L423.372 705.419C419.947 694.463 427.083 671.753 431.08 661.767Z" fill="black"/>
<path d="M356.572 701.995C344.24 717.059 325.742 758.486 319.747 775.604L329.167 779.883C326.427 768.243 347.437 721.966 356.572 701.995Z" fill="black"/>
<path d="M663.5 740L684 728C544.923 680.753 460.483 760.685 433.649 806.619L455.059 808.331C530.421 720.001 622.965 725.449 663.5 740Z" fill="black"/>
<path d="M630.616 759.342C579.233 743.593 531.561 780.74 514.148 801.282L476.5 807.5C536.789 735.603 622.338 733.379 656.307 743.08L630.616 759.342Z" fill="black"/>
<path d="M276.123 347.48C267.446 314.695 279.949 267.981 287.617 248C291.043 252.28 309.026 270.254 321.016 275.389C333.005 280.525 333.005 300.211 336.431 310.482C339.171 318.699 346.136 325.318 349.276 327.6C393.123 346.088 397.805 372.964 394.665 384.091C365.89 450.51 420.927 470.538 452.043 472.25C508.221 435.959 532.543 463.976 537.681 482.521C558.919 561.265 665.157 646.857 725.675 687.085L716.406 696.5C529.372 588.312 414.362 721.322 373.255 797.498L354 791.5L359.553 779.524C369.83 756.243 420.356 699.638 444.335 674.246C446.356 622.74 434.219 586.688 422.898 566.502C417.078 556.126 404.759 552.724 393.104 555.135C365.861 560.772 328.928 566.782 315.878 562.977C295.324 556.986 301.319 540.723 299.606 528.741C297.893 516.758 286.761 512.478 288.473 507.343C289.843 503.234 297.608 498.213 301.319 496.216C278.711 497.585 275.913 483.092 277.341 475.674C278.768 472.25 277.854 464.204 262.782 459.411C247.71 454.618 248.509 444.861 250.793 440.581C258.158 432.551 273.211 405.882 280.286 392.691C280.585 392.134 281.161 391.794 281.794 391.794H288.474C289.42 391.794 290.186 392.56 290.186 393.506V395.218C290.186 396.163 290.956 396.937 291.897 396.84C304 395.589 314.05 381.638 311.596 384.091C309.917 385.768 296.701 384.135 286.78 382.547C283.174 381.97 280.394 379.102 279.838 375.494L277.666 361.386C277.467 360.091 278.014 358.773 279.182 358.178C288.818 353.275 307.326 354.51 315.878 355.845C310.464 349.834 292.773 349.98 281.581 351.07C279.117 351.31 276.756 349.872 276.123 347.48Z" fill="black"/>
</svg>
