<svg width="576" height="688" viewBox="0 0 576 688" fill="none" xmlns="http://www.w3.org/2000/svg">
<g clip-path="url(#clip0_128_126)">
<path fill-rule="evenodd" clip-rule="evenodd" d="M240.644 11.3339H174.703V9.62207H240.644C245.847 9.62207 250.064 13.8373 250.064 19.0371V466.681H248.352V19.0371C248.352 14.7828 244.901 11.3339 240.644 11.3339Z" fill="black"/>
<path fill-rule="evenodd" clip-rule="evenodd" d="M454.74 73.8158H153.293V72.1039H454.74V73.8158Z" fill="black"/>
<path fill-rule="evenodd" clip-rule="evenodd" d="M507.836 114.9H153.293V113.188H507.836V114.9Z" fill="black"/>
<path fill-rule="evenodd" clip-rule="evenodd" d="M554.081 190.22L115.612 190.22L115.612 188.508L554.081 188.508V190.22Z" fill="black"/>
<path fill-rule="evenodd" clip-rule="evenodd" d="M569.495 268.965L132.74 268.965V267.253L569.495 267.253V268.965Z" fill="black"/>
<path fill-rule="evenodd" clip-rule="evenodd" d="M559.219 308.337H153.293V306.625H559.219V308.337Z" fill="black"/>
<path fill-rule="evenodd" clip-rule="evenodd" d="M576.347 345.997L226.942 345.997V344.285L576.347 344.285V345.997Z" fill="black"/>
<path fill-rule="evenodd" clip-rule="evenodd" d="M569.495 424.741L264.623 424.741V423.029L569.495 423.03V424.741Z" fill="black"/>
<path fill-rule="evenodd" clip-rule="evenodd" d="M230.368 11.3339L230.368 467.537H228.655L228.655 11.3339H230.368Z" fill="black"/>
<path fill-rule="evenodd" clip-rule="evenodd" d="M391.368 38.7232H202.963V37.0114H391.368C396.57 37.0114 400.788 41.2267 400.788 46.4265V532.587H399.075V46.4265C399.075 42.1721 395.624 38.7232 391.368 38.7232Z" fill="black"/>
<path d="M415.344 72.1035C415.344 80.6123 408.443 87.51 399.929 87.51C391.416 87.51 384.514 80.6123 384.514 72.1035C384.514 63.5947 391.416 56.697 399.929 56.697C408.443 56.697 415.344 63.5947 415.344 72.1035Z" fill="#EF6312"/>
<path fill-rule="evenodd" clip-rule="evenodd" d="M399.929 85.7981C407.497 85.7981 413.632 79.6668 413.632 72.1035C413.632 64.5401 407.497 58.4088 399.929 58.4088C392.362 58.4088 386.227 64.5401 386.227 72.1035C386.227 79.6668 392.362 85.7981 399.929 85.7981ZM399.929 87.51C408.443 87.51 415.344 80.6123 415.344 72.1035C415.344 63.5947 408.443 56.697 399.929 56.697C391.416 56.697 384.514 63.5947 384.514 72.1035C384.514 80.6123 391.416 87.51 399.929 87.51Z" fill="#EF6312"/>
<path d="M434.185 72.1035C434.185 76.8306 430.351 80.6627 425.621 80.6627C420.891 80.6627 417.057 76.8306 417.057 72.1035C417.057 67.3764 420.891 63.5443 425.621 63.5443C430.351 63.5443 434.185 67.3764 434.185 72.1035Z" fill="#EF6312"/>
<path fill-rule="evenodd" clip-rule="evenodd" d="M425.621 78.9508C429.405 78.9508 432.472 75.8852 432.472 72.1035C432.472 68.3218 429.405 65.2562 425.621 65.2562C421.837 65.2562 418.77 68.3218 418.77 72.1035C418.77 75.8852 421.837 78.9508 425.621 78.9508ZM425.621 80.6627C430.351 80.6627 434.185 76.8306 434.185 72.1035C434.185 67.3764 430.351 63.5443 425.621 63.5443C420.891 63.5443 417.057 67.3764 417.057 72.1035C417.057 76.8306 420.891 80.6627 425.621 80.6627Z" fill="#EF6312"/>
<path d="M382.802 72.1035C382.802 76.8306 378.968 80.6627 374.238 80.6627C369.508 80.6627 365.674 76.8306 365.674 72.1035C365.674 67.3764 369.508 63.5443 374.238 63.5443C378.968 63.5443 382.802 67.3764 382.802 72.1035Z" fill="#EF6312"/>
<path fill-rule="evenodd" clip-rule="evenodd" d="M374.238 78.9508C378.022 78.9508 381.089 75.8852 381.089 72.1035C381.089 68.3218 378.022 65.2562 374.238 65.2562C370.454 65.2562 367.387 68.3218 367.387 72.1035C367.387 75.8852 370.454 78.9508 374.238 78.9508ZM374.238 80.6627C378.968 80.6627 382.802 76.8306 382.802 72.1035C382.802 67.3764 378.968 63.5443 374.238 63.5443C369.508 63.5443 365.674 67.3764 365.674 72.1035C365.674 76.8306 369.508 80.6627 374.238 80.6627Z" fill="#EF6312"/>
<path d="M257.77 72.1035C257.77 76.8306 253.936 80.6627 249.206 80.6627C244.476 80.6627 240.642 76.8306 240.642 72.1035C240.642 67.3764 244.476 63.5443 249.206 63.5443C253.936 63.5443 257.77 67.3764 257.77 72.1035Z" fill="#EF6312"/>
<path fill-rule="evenodd" clip-rule="evenodd" d="M249.206 78.9508C252.99 78.9508 256.057 75.8852 256.057 72.1035C256.057 68.3218 252.99 65.2562 249.206 65.2562C245.422 65.2562 242.355 68.3218 242.355 72.1035C242.355 75.8852 245.422 78.9508 249.206 78.9508ZM249.206 80.6627C253.936 80.6627 257.77 76.8306 257.77 72.1035C257.77 67.3764 253.936 63.5443 249.206 63.5443C244.476 63.5443 240.642 67.3764 240.642 72.1035C240.642 76.8306 244.476 80.6627 249.206 80.6627Z" fill="#EF6312"/>
<path d="M199.536 72.1035C199.536 76.8306 195.701 80.6627 190.972 80.6627C186.242 80.6627 182.408 76.8306 182.408 72.1035C182.408 67.3764 186.242 63.5443 190.972 63.5443C195.701 63.5443 199.536 67.3764 199.536 72.1035Z" fill="#EF6312"/>
<path fill-rule="evenodd" clip-rule="evenodd" d="M190.972 78.9508C194.756 78.9508 197.823 75.8852 197.823 72.1035C197.823 68.3218 194.756 65.2562 190.972 65.2562C187.188 65.2562 184.121 68.3218 184.121 72.1035C184.121 75.8852 187.188 78.9508 190.972 78.9508ZM190.972 80.6627C195.701 80.6627 199.536 76.8306 199.536 72.1035C199.536 67.3764 195.701 63.5443 190.972 63.5443C186.242 63.5443 182.408 67.3764 182.408 72.1035C182.408 76.8306 186.242 80.6627 190.972 80.6627Z" fill="#EF6312"/>
<path d="M220.089 72.1035C220.089 75.8852 217.022 78.9508 213.238 78.9508C209.454 78.9508 206.387 75.8852 206.387 72.1035C206.387 68.3218 209.454 65.2562 213.238 65.2562C217.022 65.2562 220.089 68.3218 220.089 72.1035Z" fill="#EF6312"/>
<path fill-rule="evenodd" clip-rule="evenodd" d="M213.238 77.239C216.076 77.239 218.376 74.9397 218.376 72.1035C218.376 69.2672 216.076 66.968 213.238 66.968C210.4 66.968 208.099 69.2672 208.099 72.1035C208.099 74.9397 210.4 77.239 213.238 77.239ZM213.238 78.9508C217.022 78.9508 220.089 75.8852 220.089 72.1035C220.089 68.3218 217.022 65.2562 213.238 65.2562C209.454 65.2562 206.387 68.3218 206.387 72.1035C206.387 75.8852 209.454 78.9508 213.238 78.9508Z" fill="#EF6312"/>
<path d="M161.855 72.1035C161.855 76.8306 158.021 80.6627 153.291 80.6627C148.561 80.6627 144.727 76.8306 144.727 72.1035C144.727 67.3764 148.561 63.5443 153.291 63.5443C158.021 63.5443 161.855 67.3764 161.855 72.1035Z" fill="#EF6312"/>
<path fill-rule="evenodd" clip-rule="evenodd" d="M153.291 78.9508C157.075 78.9508 160.142 75.8852 160.142 72.1035C160.142 68.3218 157.075 65.2562 153.291 65.2562C149.507 65.2562 146.44 68.3218 146.44 72.1035C146.44 75.8852 149.507 78.9508 153.291 78.9508ZM153.291 80.6627C158.021 80.6627 161.855 76.8306 161.855 72.1035C161.855 67.3764 158.021 63.5443 153.291 63.5443C148.561 63.5443 144.727 67.3764 144.727 72.1035C144.727 76.8306 148.561 80.6627 153.291 80.6627Z" fill="#EF6312"/>
<path d="M290.312 72.9594C290.312 80.05 284.561 85.7981 277.467 85.7981C270.372 85.7981 264.621 80.05 264.621 72.9594C264.621 65.8688 270.372 60.1207 277.467 60.1207C284.561 60.1207 290.312 65.8688 290.312 72.9594Z" fill="#EF6312"/>
<path fill-rule="evenodd" clip-rule="evenodd" d="M277.467 84.0863C283.615 84.0863 288.6 79.1046 288.6 72.9594C288.6 66.8142 283.615 61.8325 277.467 61.8325C271.318 61.8325 266.334 66.8142 266.334 72.9594C266.334 79.1046 271.318 84.0863 277.467 84.0863ZM277.467 85.7981C284.561 85.7981 290.312 80.05 290.312 72.9594C290.312 65.8688 284.561 60.1207 277.467 60.1207C270.372 60.1207 264.621 65.8688 264.621 72.9594C264.621 80.05 270.372 85.7981 277.467 85.7981Z" fill="#EF6312"/>
<path d="M199.536 72.1035C199.536 76.8306 195.701 80.6627 190.972 80.6627C186.242 80.6627 182.408 76.8306 182.408 72.1035C182.408 67.3764 186.242 63.5443 190.972 63.5443C195.701 63.5443 199.536 67.3764 199.536 72.1035Z" fill="#EF6312"/>
<path fill-rule="evenodd" clip-rule="evenodd" d="M190.972 78.9508C194.756 78.9508 197.823 75.8852 197.823 72.1035C197.823 68.3218 194.756 65.2562 190.972 65.2562C187.188 65.2562 184.121 68.3218 184.121 72.1035C184.121 75.8852 187.188 78.9508 190.972 78.9508ZM190.972 80.6627C195.701 80.6627 199.536 76.8306 199.536 72.1035C199.536 67.3764 195.701 63.5443 190.972 63.5443C186.242 63.5443 182.408 67.3764 182.408 72.1035C182.408 76.8306 186.242 80.6627 190.972 80.6627Z" fill="#EF6312"/>
<path d="M257.77 113.187C257.77 117.915 253.936 121.747 249.206 121.747C244.476 121.747 240.642 117.915 240.642 113.187C240.642 108.46 244.476 104.628 249.206 104.628C253.936 104.628 257.77 108.46 257.77 113.187Z" fill="#EF6312"/>
<path fill-rule="evenodd" clip-rule="evenodd" d="M249.206 120.035C252.99 120.035 256.057 116.969 256.057 113.187C256.057 109.406 252.99 106.34 249.206 106.34C245.422 106.34 242.355 109.406 242.355 113.187C242.355 116.969 245.422 120.035 249.206 120.035ZM249.206 121.747C253.936 121.747 257.77 117.915 257.77 113.187C257.77 108.46 253.936 104.628 249.206 104.628C244.476 104.628 240.642 108.46 240.642 113.187C240.642 117.915 244.476 121.747 249.206 121.747Z" fill="#EF6312"/>
<path d="M208.099 112.332C208.099 120.368 201.581 126.882 193.541 126.882C185.501 126.882 178.982 120.368 178.982 112.332C178.982 104.295 185.501 97.781 193.541 97.781C201.581 97.781 208.099 104.295 208.099 112.332Z" fill="#EF6312"/>
<path fill-rule="evenodd" clip-rule="evenodd" d="M193.541 125.17C200.635 125.17 206.387 119.422 206.387 112.332C206.387 105.241 200.635 99.4928 193.541 99.4928C186.446 99.4928 180.695 105.241 180.695 112.332C180.695 119.422 186.446 125.17 193.541 125.17ZM193.541 126.882C201.581 126.882 208.099 120.368 208.099 112.332C208.099 104.295 201.581 97.781 193.541 97.781C185.501 97.781 178.982 104.295 178.982 112.332C178.982 120.368 185.501 126.882 193.541 126.882Z" fill="#EF6312"/>
<path d="M163.568 113.187C163.568 117.915 159.733 121.747 155.004 121.747C150.274 121.747 146.44 117.915 146.44 113.187C146.44 108.46 150.274 104.628 155.004 104.628C159.733 104.628 163.568 108.46 163.568 113.187Z" fill="#EF6312"/>
<path fill-rule="evenodd" clip-rule="evenodd" d="M155.004 120.035C158.787 120.035 161.855 116.969 161.855 113.187C161.855 109.406 158.787 106.34 155.004 106.34C151.22 106.34 148.153 109.406 148.153 113.187C148.153 116.969 151.22 120.035 155.004 120.035ZM155.004 121.747C159.733 121.747 163.568 117.915 163.568 113.187C163.568 108.46 159.733 104.628 155.004 104.628C150.274 104.628 146.44 108.46 146.44 113.187C146.44 117.915 150.274 121.747 155.004 121.747Z" fill="#EF6312"/>
<path d="M290.312 110.62C290.312 117.71 284.561 123.458 277.467 123.458C270.372 123.458 264.621 117.71 264.621 110.62C264.621 103.529 270.372 97.781 277.467 97.781C284.561 97.781 290.312 103.529 290.312 110.62Z" fill="#EF6312"/>
<path fill-rule="evenodd" clip-rule="evenodd" d="M277.467 121.747C283.615 121.747 288.6 116.765 288.6 110.62C288.6 104.474 283.615 99.4928 277.467 99.4928C271.318 99.4928 266.334 104.474 266.334 110.62C266.334 116.765 271.318 121.747 277.467 121.747ZM277.467 123.458C284.561 123.458 290.312 117.71 290.312 110.62C290.312 103.529 284.561 97.781 277.467 97.781C270.372 97.781 264.621 103.529 264.621 110.62C264.621 117.71 270.372 123.458 277.467 123.458Z" fill="#EF6312"/>
<path d="M415.344 190.22C415.344 198.729 408.443 205.626 399.929 205.626C391.416 205.626 384.514 198.729 384.514 190.22C384.514 181.711 391.416 174.813 399.929 174.813C408.443 174.813 415.344 181.711 415.344 190.22Z" fill="#EF6312"/>
<path fill-rule="evenodd" clip-rule="evenodd" d="M399.929 203.915C407.497 203.915 413.632 197.783 413.632 190.22C413.632 182.657 407.497 176.525 399.929 176.525C392.362 176.525 386.227 182.657 386.227 190.22C386.227 197.783 392.362 203.915 399.929 203.915ZM399.929 205.626C408.443 205.626 415.344 198.729 415.344 190.22C415.344 181.711 408.443 174.813 399.929 174.813C391.416 174.813 384.514 181.711 384.514 190.22C384.514 198.729 391.416 205.626 399.929 205.626Z" fill="#EF6312"/>
<path d="M434.185 190.22C434.185 194.947 430.351 198.779 425.621 198.779C420.891 198.779 417.057 194.947 417.057 190.22C417.057 185.493 420.891 181.661 425.621 181.661C430.351 181.661 434.185 185.493 434.185 190.22Z" fill="#EF6312"/>
<path fill-rule="evenodd" clip-rule="evenodd" d="M425.621 197.067C429.405 197.067 432.472 194.002 432.472 190.22C432.472 186.438 429.405 183.373 425.621 183.373C421.837 183.373 418.77 186.438 418.77 190.22C418.77 194.002 421.837 197.067 425.621 197.067ZM425.621 198.779C430.351 198.779 434.185 194.947 434.185 190.22C434.185 185.493 430.351 181.661 425.621 181.661C420.891 181.661 417.057 185.493 417.057 190.22C417.057 194.947 420.891 198.779 425.621 198.779Z" fill="#EF6312"/>
<path d="M382.802 190.22C382.802 194.947 378.968 198.779 374.238 198.779C369.508 198.779 365.674 194.947 365.674 190.22C365.674 185.493 369.508 181.661 374.238 181.661C378.968 181.661 382.802 185.493 382.802 190.22Z" fill="#EF6312"/>
<path fill-rule="evenodd" clip-rule="evenodd" d="M374.238 197.067C378.022 197.067 381.089 194.002 381.089 190.22C381.089 186.438 378.022 183.373 374.238 183.373C370.454 183.373 367.387 186.438 367.387 190.22C367.387 194.002 370.454 197.067 374.238 197.067ZM374.238 198.779C378.968 198.779 382.802 194.947 382.802 190.22C382.802 185.493 378.968 181.661 374.238 181.661C369.508 181.661 365.674 185.493 365.674 190.22C365.674 194.947 369.508 198.779 374.238 198.779Z" fill="#EF6312"/>
<path d="M262.908 187.652C262.908 195.688 256.39 202.203 248.35 202.203C240.309 202.203 233.791 195.688 233.791 187.652C233.791 179.616 240.309 173.102 248.35 173.102C256.39 173.102 262.908 179.616 262.908 187.652Z" fill="#EF6312"/>
<path fill-rule="evenodd" clip-rule="evenodd" d="M248.35 200.491C255.444 200.491 261.195 194.743 261.195 187.652C261.195 180.562 255.444 174.813 248.35 174.813C241.255 174.813 235.504 180.562 235.504 187.652C235.504 194.743 241.255 200.491 248.35 200.491ZM248.35 202.203C256.39 202.203 262.908 195.688 262.908 187.652C262.908 179.616 256.39 173.102 248.35 173.102C240.309 173.102 233.791 179.616 233.791 187.652C233.791 195.688 240.309 202.203 248.35 202.203Z" fill="#EF6312"/>
<path d="M182.408 187.652C182.408 191.907 178.957 195.355 174.701 195.355C170.444 195.355 166.993 191.907 166.993 187.652C166.993 183.398 170.444 179.949 174.701 179.949C178.957 179.949 182.408 183.398 182.408 187.652Z" fill="#EF6312"/>
<path fill-rule="evenodd" clip-rule="evenodd" d="M174.701 193.644C178.011 193.644 180.695 190.961 180.695 187.652C180.695 184.343 178.011 181.661 174.701 181.661C171.39 181.661 168.706 184.343 168.706 187.652C168.706 190.961 171.39 193.644 174.701 193.644ZM174.701 195.355C178.957 195.355 182.408 191.907 182.408 187.652C182.408 183.398 178.957 179.949 174.701 179.949C170.444 179.949 166.993 183.398 166.993 187.652C166.993 191.907 170.444 195.355 174.701 195.355Z" fill="#EF6312"/>
<path d="M165.28 188.508C165.28 194.181 160.679 198.779 155.004 198.779C149.328 198.779 144.727 194.181 144.727 188.508C144.727 182.836 149.328 178.237 155.004 178.237C160.679 178.237 165.28 182.836 165.28 188.508Z" fill="#EF6312"/>
<path fill-rule="evenodd" clip-rule="evenodd" d="M155.004 197.067C159.733 197.067 163.568 193.235 163.568 188.508C163.568 183.781 159.733 179.949 155.004 179.949C150.274 179.949 146.44 183.781 146.44 188.508C146.44 193.235 150.274 197.067 155.004 197.067ZM155.004 198.779C160.679 198.779 165.28 194.181 165.28 188.508C165.28 182.836 160.679 178.237 155.004 178.237C149.328 178.237 144.727 182.836 144.727 188.508C144.727 194.181 149.328 198.779 155.004 198.779Z" fill="#EF6312"/>
<path d="M286.887 187.652C286.887 193.797 281.902 198.779 275.754 198.779C269.605 198.779 264.621 193.797 264.621 187.652C264.621 181.507 269.605 176.525 275.754 176.525C281.902 176.525 286.887 181.507 286.887 187.652Z" fill="#EF6312"/>
<path fill-rule="evenodd" clip-rule="evenodd" d="M275.754 197.067C280.956 197.067 285.174 192.852 285.174 187.652C285.174 182.452 280.956 178.237 275.754 178.237C270.551 178.237 266.334 182.452 266.334 187.652C266.334 192.852 270.551 197.067 275.754 197.067ZM275.754 198.779C281.902 198.779 286.887 193.797 286.887 187.652C286.887 181.507 281.902 176.525 275.754 176.525C269.605 176.525 264.621 181.507 264.621 187.652C264.621 193.797 269.605 198.779 275.754 198.779Z" fill="#EF6312"/>
<path d="M415.344 267.252C415.344 275.761 408.443 282.659 399.929 282.659C391.416 282.659 384.514 275.761 384.514 267.252C384.514 258.744 391.416 251.846 399.929 251.846C408.443 251.846 415.344 258.744 415.344 267.252Z" fill="#EF6312"/>
<path fill-rule="evenodd" clip-rule="evenodd" d="M399.929 280.947C407.497 280.947 413.632 274.816 413.632 267.252C413.632 259.689 407.497 253.558 399.929 253.558C392.362 253.558 386.227 259.689 386.227 267.252C386.227 274.816 392.362 280.947 399.929 280.947ZM399.929 282.659C408.443 282.659 415.344 275.761 415.344 267.252C415.344 258.744 408.443 251.846 399.929 251.846C391.416 251.846 384.514 258.744 384.514 267.252C384.514 275.761 391.416 282.659 399.929 282.659Z" fill="#EF6312"/>
<path d="M434.185 267.252C434.185 271.979 430.351 275.811 425.621 275.811C420.891 275.811 417.057 271.979 417.057 267.252C417.057 262.525 420.891 258.693 425.621 258.693C430.351 258.693 434.185 262.525 434.185 267.252Z" fill="#EF6312"/>
<path fill-rule="evenodd" clip-rule="evenodd" d="M425.621 274.1C429.405 274.1 432.472 271.034 432.472 267.252C432.472 263.471 429.405 260.405 425.621 260.405C421.837 260.405 418.77 263.471 418.77 267.252C418.77 271.034 421.837 274.1 425.621 274.1ZM425.621 275.811C430.351 275.811 434.185 271.979 434.185 267.252C434.185 262.525 430.351 258.693 425.621 258.693C420.891 258.693 417.057 262.525 417.057 267.252C417.057 271.979 420.891 275.811 425.621 275.811Z" fill="#EF6312"/>
<path d="M382.802 267.252C382.802 271.979 378.968 275.811 374.238 275.811C369.508 275.811 365.674 271.979 365.674 267.252C365.674 262.525 369.508 258.693 374.238 258.693C378.968 258.693 382.802 262.525 382.802 267.252Z" fill="#EF6312"/>
<path fill-rule="evenodd" clip-rule="evenodd" d="M374.238 274.1C378.022 274.1 381.089 271.034 381.089 267.252C381.089 263.471 378.022 260.405 374.238 260.405C370.454 260.405 367.387 263.471 367.387 267.252C367.387 271.034 370.454 274.1 374.238 274.1ZM374.238 275.811C378.968 275.811 382.802 271.979 382.802 267.252C382.802 262.525 378.968 258.693 374.238 258.693C369.508 258.693 365.674 262.525 365.674 267.252C365.674 271.979 369.508 275.811 374.238 275.811Z" fill="#EF6312"/>
<path d="M290.312 264.685C290.312 271.775 284.561 277.523 277.467 277.523C270.372 277.523 264.621 271.775 264.621 264.685C264.621 257.594 270.372 251.846 277.467 251.846C284.561 251.846 290.312 257.594 290.312 264.685Z" fill="#EF6312"/>
<path fill-rule="evenodd" clip-rule="evenodd" d="M277.467 275.811C283.615 275.811 288.6 270.83 288.6 264.685C288.6 258.539 283.615 253.558 277.467 253.558C271.318 253.558 266.334 258.539 266.334 264.685C266.334 270.83 271.318 275.811 277.467 275.811ZM277.467 277.523C284.561 277.523 290.312 271.775 290.312 264.685C290.312 257.594 284.561 251.846 277.467 251.846C270.372 251.846 264.621 257.594 264.621 264.685C264.621 271.775 270.372 277.523 277.467 277.523Z" fill="#EF6312"/>
<path d="M218.376 268.108C218.376 276.144 211.858 282.659 203.818 282.659C195.777 282.659 189.259 276.144 189.259 268.108C189.259 260.072 195.777 253.558 203.818 253.558C211.858 253.558 218.376 260.072 218.376 268.108Z" fill="#EF6312"/>
<path fill-rule="evenodd" clip-rule="evenodd" d="M203.818 280.947C210.912 280.947 216.663 275.199 216.663 268.108C216.663 261.018 210.912 255.27 203.818 255.27C196.723 255.27 190.972 261.018 190.972 268.108C190.972 275.199 196.723 280.947 203.818 280.947ZM203.818 282.659C211.858 282.659 218.376 276.144 218.376 268.108C218.376 260.072 211.858 253.558 203.818 253.558C195.777 253.558 189.259 260.072 189.259 268.108C189.259 276.144 195.777 282.659 203.818 282.659Z" fill="#EF6312"/>
<path d="M415.344 306.624C415.344 315.133 408.443 322.031 399.929 322.031C391.416 322.031 384.514 315.133 384.514 306.624C384.514 298.116 391.416 291.218 399.929 291.218C408.443 291.218 415.344 298.116 415.344 306.624Z" fill="#EF6312"/>
<path fill-rule="evenodd" clip-rule="evenodd" d="M399.929 320.319C407.497 320.319 413.632 314.188 413.632 306.624C413.632 299.061 407.497 292.93 399.929 292.93C392.362 292.93 386.227 299.061 386.227 306.624C386.227 314.188 392.362 320.319 399.929 320.319ZM399.929 322.031C408.443 322.031 415.344 315.133 415.344 306.624C415.344 298.116 408.443 291.218 399.929 291.218C391.416 291.218 384.514 298.116 384.514 306.624C384.514 315.133 391.416 322.031 399.929 322.031Z" fill="#EF6312"/>
<path d="M434.185 306.624C434.185 311.352 430.351 315.184 425.621 315.184C420.891 315.184 417.057 311.352 417.057 306.624C417.057 301.897 420.891 298.065 425.621 298.065C430.351 298.065 434.185 301.897 434.185 306.624Z" fill="#EF6312"/>
<path fill-rule="evenodd" clip-rule="evenodd" d="M425.621 313.472C429.405 313.472 432.472 310.406 432.472 306.624C432.472 302.843 429.405 299.777 425.621 299.777C421.837 299.777 418.77 302.843 418.77 306.624C418.77 310.406 421.837 313.472 425.621 313.472ZM425.621 315.184C430.351 315.184 434.185 311.352 434.185 306.624C434.185 301.897 430.351 298.065 425.621 298.065C420.891 298.065 417.057 301.897 417.057 306.624C417.057 311.352 420.891 315.184 425.621 315.184Z" fill="#EF6312"/>
<path d="M382.802 306.624C382.802 311.352 378.968 315.184 374.238 315.184C369.508 315.184 365.674 311.352 365.674 306.624C365.674 301.897 369.508 298.065 374.238 298.065C378.968 298.065 382.802 301.897 382.802 306.624Z" fill="#EF6312"/>
<path fill-rule="evenodd" clip-rule="evenodd" d="M374.238 313.472C378.022 313.472 381.089 310.406 381.089 306.624C381.089 302.843 378.022 299.777 374.238 299.777C370.454 299.777 367.387 302.843 367.387 306.624C367.387 310.406 370.454 313.472 374.238 313.472ZM374.238 315.184C378.968 315.184 382.802 311.352 382.802 306.624C382.802 301.897 378.968 298.065 374.238 298.065C369.508 298.065 365.674 301.897 365.674 306.624C365.674 311.352 369.508 315.184 374.238 315.184Z" fill="#EF6312"/>
<path d="M238.929 306.624C238.929 312.297 234.328 316.895 228.653 316.895C222.977 316.895 218.376 312.297 218.376 306.624C218.376 300.952 222.977 296.353 228.653 296.353C234.328 296.353 238.929 300.952 238.929 306.624Z" fill="#EF6312"/>
<path fill-rule="evenodd" clip-rule="evenodd" d="M228.653 315.184C233.382 315.184 237.217 311.352 237.217 306.624C237.217 301.897 233.382 298.065 228.653 298.065C223.923 298.065 220.089 301.897 220.089 306.624C220.089 311.352 223.923 315.184 228.653 315.184ZM228.653 316.895C234.328 316.895 238.929 312.297 238.929 306.624C238.929 300.952 234.328 296.353 228.653 296.353C222.977 296.353 218.376 300.952 218.376 306.624C218.376 312.297 222.977 316.895 228.653 316.895Z" fill="#EF6312"/>
<path d="M161.855 306.624C161.855 311.352 158.021 315.184 153.291 315.184C148.561 315.184 144.727 311.352 144.727 306.624C144.727 301.897 148.561 298.065 153.291 298.065C158.021 298.065 161.855 301.897 161.855 306.624Z" fill="#EF6312"/>
<path fill-rule="evenodd" clip-rule="evenodd" d="M153.291 313.472C157.075 313.472 160.142 310.406 160.142 306.624C160.142 302.843 157.075 299.777 153.291 299.777C149.507 299.777 146.44 302.843 146.44 306.624C146.44 310.406 149.507 313.472 153.291 313.472ZM153.291 315.184C158.021 315.184 161.855 311.352 161.855 306.624C161.855 301.897 158.021 298.065 153.291 298.065C148.561 298.065 144.727 301.897 144.727 306.624C144.727 311.352 148.561 315.184 153.291 315.184Z" fill="#EF6312"/>
<path d="M290.312 307.48C290.312 314.571 284.561 320.319 277.467 320.319C270.372 320.319 264.621 314.571 264.621 307.48C264.621 300.39 270.372 294.642 277.467 294.642C284.561 294.642 290.312 300.39 290.312 307.48Z" fill="#EF6312"/>
<path fill-rule="evenodd" clip-rule="evenodd" d="M277.467 318.607C283.615 318.607 288.6 313.626 288.6 307.48C288.6 301.335 283.615 296.353 277.467 296.353C271.318 296.353 266.334 301.335 266.334 307.48C266.334 313.626 271.318 318.607 277.467 318.607ZM277.467 320.319C284.561 320.319 290.312 314.571 290.312 307.48C290.312 300.39 284.561 294.642 277.467 294.642C270.372 294.642 264.621 300.39 264.621 307.48C264.621 314.571 270.372 320.319 277.467 320.319Z" fill="#EF6312"/>
<path d="M187.546 306.624C187.546 311.352 183.712 315.184 178.982 315.184C174.253 315.184 170.419 311.352 170.419 306.624C170.419 301.897 174.253 298.065 178.982 298.065C183.712 298.065 187.546 301.897 187.546 306.624Z" fill="#EF6312"/>
<path fill-rule="evenodd" clip-rule="evenodd" d="M178.982 313.472C182.766 313.472 185.834 310.406 185.834 306.624C185.834 302.843 182.766 299.777 178.982 299.777C175.199 299.777 172.131 302.843 172.131 306.624C172.131 310.406 175.199 313.472 178.982 313.472ZM178.982 315.184C183.712 315.184 187.546 311.352 187.546 306.624C187.546 301.897 183.712 298.065 178.982 298.065C174.253 298.065 170.419 301.897 170.419 306.624C170.419 311.352 174.253 315.184 178.982 315.184Z" fill="#EF6312"/>
<path d="M415.344 344.285C415.344 352.794 408.443 359.691 399.929 359.691C391.416 359.691 384.514 352.794 384.514 344.285C384.514 335.776 391.416 328.878 399.929 328.878C408.443 328.878 415.344 335.776 415.344 344.285Z" fill="#EF6312"/>
<path fill-rule="evenodd" clip-rule="evenodd" d="M399.929 357.979C407.497 357.979 413.632 351.848 413.632 344.285C413.632 336.721 407.497 330.59 399.929 330.59C392.362 330.59 386.227 336.721 386.227 344.285C386.227 351.848 392.362 357.979 399.929 357.979ZM399.929 359.691C408.443 359.691 415.344 352.794 415.344 344.285C415.344 335.776 408.443 328.878 399.929 328.878C391.416 328.878 384.514 335.776 384.514 344.285C384.514 352.794 391.416 359.691 399.929 359.691Z" fill="#EF6312"/>
<path d="M434.185 344.285C434.185 349.012 430.351 352.844 425.621 352.844C420.891 352.844 417.057 349.012 417.057 344.285C417.057 339.558 420.891 335.726 425.621 335.726C430.351 335.726 434.185 339.558 434.185 344.285Z" fill="#EF6312"/>
<path fill-rule="evenodd" clip-rule="evenodd" d="M425.621 351.132C429.405 351.132 432.472 348.066 432.472 344.285C432.472 340.503 429.405 337.437 425.621 337.437C421.837 337.437 418.77 340.503 418.77 344.285C418.77 348.066 421.837 351.132 425.621 351.132ZM425.621 352.844C430.351 352.844 434.185 349.012 434.185 344.285C434.185 339.558 430.351 335.726 425.621 335.726C420.891 335.726 417.057 339.558 417.057 344.285C417.057 349.012 420.891 352.844 425.621 352.844Z" fill="#EF6312"/>
<path d="M382.802 344.285C382.802 349.012 378.968 352.844 374.238 352.844C369.508 352.844 365.674 349.012 365.674 344.285C365.674 339.558 369.508 335.726 374.238 335.726C378.968 335.726 382.802 339.558 382.802 344.285Z" fill="#EF6312"/>
<path fill-rule="evenodd" clip-rule="evenodd" d="M374.238 351.132C378.022 351.132 381.089 348.066 381.089 344.285C381.089 340.503 378.022 337.437 374.238 337.437C370.454 337.437 367.387 340.503 367.387 344.285C367.387 348.066 370.454 351.132 374.238 351.132ZM374.238 352.844C378.968 352.844 382.802 349.012 382.802 344.285C382.802 339.558 378.968 335.726 374.238 335.726C369.508 335.726 365.674 339.558 365.674 344.285C365.674 349.012 369.508 352.844 374.238 352.844Z" fill="#EF6312"/>
<path d="M415.344 423.029C415.344 431.538 408.443 438.436 399.929 438.436C391.416 438.436 384.514 431.538 384.514 423.029C384.514 414.52 391.416 407.623 399.929 407.623C408.443 407.623 415.344 414.52 415.344 423.029Z" fill="#EF6312"/>
<path fill-rule="evenodd" clip-rule="evenodd" d="M399.929 436.724C407.497 436.724 413.632 430.592 413.632 423.029C413.632 415.466 407.497 409.334 399.929 409.334C392.362 409.334 386.227 415.466 386.227 423.029C386.227 430.592 392.362 436.724 399.929 436.724ZM399.929 438.436C408.443 438.436 415.344 431.538 415.344 423.029C415.344 414.52 408.443 407.623 399.929 407.623C391.416 407.623 384.514 414.52 384.514 423.029C384.514 431.538 391.416 438.436 399.929 438.436Z" fill="#EF6312"/>
<path d="M434.185 423.029C434.185 427.756 430.351 431.588 425.621 431.588C420.891 431.588 417.057 427.756 417.057 423.029C417.057 418.302 420.891 414.47 425.621 414.47C430.351 414.47 434.185 418.302 434.185 423.029Z" fill="#EF6312"/>
<path fill-rule="evenodd" clip-rule="evenodd" d="M425.621 429.876C429.405 429.876 432.472 426.811 432.472 423.029C432.472 419.247 429.405 416.182 425.621 416.182C421.837 416.182 418.77 419.247 418.77 423.029C418.77 426.811 421.837 429.876 425.621 429.876ZM425.621 431.588C430.351 431.588 434.185 427.756 434.185 423.029C434.185 418.302 430.351 414.47 425.621 414.47C420.891 414.47 417.057 418.302 417.057 423.029C417.057 427.756 420.891 431.588 425.621 431.588Z" fill="#EF6312"/>
<path d="M382.802 423.029C382.802 427.756 378.968 431.588 374.238 431.588C369.508 431.588 365.674 427.756 365.674 423.029C365.674 418.302 369.508 414.47 374.238 414.47C378.968 414.47 382.802 418.302 382.802 423.029Z" fill="#EF6312"/>
<path fill-rule="evenodd" clip-rule="evenodd" d="M374.238 429.876C378.022 429.876 381.089 426.811 381.089 423.029C381.089 419.247 378.022 416.182 374.238 416.182C370.454 416.182 367.387 419.247 367.387 423.029C367.387 426.811 370.454 429.876 374.238 429.876ZM374.238 431.588C378.968 431.588 382.802 427.756 382.802 423.029C382.802 418.302 378.968 414.47 374.238 414.47C369.508 414.47 365.674 418.302 365.674 423.029C365.674 427.756 369.508 431.588 374.238 431.588Z" fill="#EF6312"/>
<path d="M382.802 496.638C382.802 501.365 378.968 505.197 374.238 505.197C369.508 505.197 365.674 501.365 365.674 496.638C365.674 491.911 369.508 488.079 374.238 488.079C378.968 488.079 382.802 491.911 382.802 496.638Z" fill="#EF6312"/>
<path fill-rule="evenodd" clip-rule="evenodd" d="M374.238 503.485C378.022 503.485 381.089 500.42 381.089 496.638C381.089 492.856 378.022 489.79 374.238 489.79C370.454 489.79 367.387 492.856 367.387 496.638C367.387 500.42 370.454 503.485 374.238 503.485ZM374.238 505.197C378.968 505.197 382.802 501.365 382.802 496.638C382.802 491.911 378.968 488.079 374.238 488.079C369.508 488.079 365.674 491.911 365.674 496.638C365.674 501.365 369.508 505.197 374.238 505.197Z" fill="#EF6312"/>
<path d="M185.834 11.3335C185.834 17.4787 180.849 22.4604 174.701 22.4604C168.552 22.4604 163.568 17.4787 163.568 11.3335C163.568 5.18823 168.552 0.206543 174.701 0.206543C180.849 0.206543 185.834 5.18823 185.834 11.3335Z" fill="#EF6312"/>
<path fill-rule="evenodd" clip-rule="evenodd" d="M174.701 20.7485C179.903 20.7485 184.121 16.5333 184.121 11.3335C184.121 6.13365 179.903 1.91838 174.701 1.91838C169.498 1.91838 165.28 6.13365 165.28 11.3335C165.28 16.5333 169.498 20.7485 174.701 20.7485ZM174.701 22.4604C180.849 22.4604 185.834 17.4787 185.834 11.3335C185.834 5.18823 180.849 0.206543 174.701 0.206543C168.552 0.206543 163.568 5.18823 163.568 11.3335C163.568 17.4787 168.552 22.4604 174.701 22.4604Z" fill="#EF6312"/>
<path d="M211.525 37.0109C211.525 41.2653 208.074 44.7142 203.818 44.7142C199.561 44.7142 196.11 41.2653 196.11 37.0109C196.11 32.7565 199.561 29.3077 203.818 29.3077C208.074 29.3077 211.525 32.7565 211.525 37.0109Z" fill="#EF6312"/>
<path fill-rule="evenodd" clip-rule="evenodd" d="M203.818 43.0023C207.128 43.0023 209.812 40.3199 209.812 37.0109C209.812 33.702 207.128 31.0195 203.818 31.0195C200.507 31.0195 197.823 33.702 197.823 37.0109C197.823 40.3199 200.507 43.0023 203.818 43.0023ZM203.818 44.7142C208.074 44.7142 211.525 41.2653 211.525 37.0109C211.525 32.7565 208.074 29.3077 203.818 29.3077C199.561 29.3077 196.11 32.7565 196.11 37.0109C196.11 41.2653 199.561 44.7142 203.818 44.7142Z" fill="#EF6312"/>
<path d="M122.461 188.508C122.461 195.126 117.093 200.491 110.472 200.491C103.85 200.491 98.4824 195.126 98.4824 188.508C98.4824 181.89 103.85 176.525 110.472 176.525C117.093 176.525 122.461 181.89 122.461 188.508Z" fill="#EF6312"/>
<path fill-rule="evenodd" clip-rule="evenodd" d="M110.472 198.779C116.147 198.779 120.748 194.181 120.748 188.508C120.748 182.836 116.147 178.237 110.472 178.237C104.796 178.237 100.195 182.836 100.195 188.508C100.195 194.181 104.796 198.779 110.472 198.779ZM110.472 200.491C117.093 200.491 122.461 195.126 122.461 188.508C122.461 181.89 117.093 176.525 110.472 176.525C103.85 176.525 98.4824 181.89 98.4824 188.508C98.4824 195.126 103.85 200.491 110.472 200.491Z" fill="#EF6312"/>
<path d="M136.163 267.252C136.163 271.979 132.329 275.811 127.599 275.811C122.87 275.811 119.036 271.979 119.036 267.252C119.036 262.525 122.87 258.693 127.599 258.693C132.329 258.693 136.163 262.525 136.163 267.252Z" fill="#EF6312"/>
<path fill-rule="evenodd" clip-rule="evenodd" d="M127.599 274.1C131.383 274.1 134.451 271.034 134.451 267.252C134.451 263.471 131.383 260.405 127.599 260.405C123.816 260.405 120.748 263.471 120.748 267.252C120.748 271.034 123.816 274.1 127.599 274.1ZM127.599 275.811C132.329 275.811 136.163 271.979 136.163 267.252C136.163 262.525 132.329 258.693 127.599 258.693C122.87 258.693 119.036 262.525 119.036 267.252C119.036 271.979 122.87 275.811 127.599 275.811Z" fill="#EF6312"/>
<path d="M523.249 304.913C523.249 313.421 516.347 320.319 507.834 320.319C499.32 320.319 492.419 313.421 492.419 304.913C492.419 296.404 499.32 289.506 507.834 289.506C516.347 289.506 523.249 296.404 523.249 304.913Z" fill="#EF6312"/>
<path fill-rule="evenodd" clip-rule="evenodd" d="M507.834 318.607C515.401 318.607 521.536 312.476 521.536 304.913C521.536 297.349 515.401 291.218 507.834 291.218C500.266 291.218 494.132 297.349 494.132 304.913C494.132 312.476 500.266 318.607 507.834 318.607ZM507.834 320.319C516.347 320.319 523.249 313.421 523.249 304.913C523.249 296.404 516.347 289.506 507.834 289.506C499.32 289.506 492.419 296.404 492.419 304.913C492.419 313.421 499.32 320.319 507.834 320.319Z" fill="#EF6312"/>
<path d="M439.475 603.877C309.304 538.827 193.829 632.442 159.289 684.938L142.161 681.515C250.408 532.928 397.595 558.64 452.975 592.877L439.475 603.877Z" fill="black"/>
<path d="M132.741 559.974C112.872 572.299 93.0617 635.58 86.4961 663.54L96.7727 667.82C92.662 643.169 121.322 583.369 136.166 557.406L132.741 559.974Z" fill="black"/>
<path d="M92.4906 595.923C92.2778 596 92.0504 596.096 91.8094 596.211C86.7638 599.896 69.645 635.32 62.5173 652.413L55.6663 648.99C66.9184 617.236 84.938 599.494 91.8094 596.211C92.0696 596.021 92.2976 595.923 92.4906 595.923Z" fill="black"/>
<path d="M147.299 553.127C124.525 575.888 108.191 640.145 104.48 670.387L116.975 673.877C116.975 621.152 139.592 570.816 151.581 554.839L161.001 542.856C153.294 546.28 154.15 546.28 147.299 553.127Z" fill="black"/>
<path d="M179.842 536.009C153.808 540.802 133.57 613.612 129.288 640.43L147.299 617.321C141.818 596.779 166.71 553.127 179.842 536.009Z" fill="black"/>
<path d="M181.554 541.144C167.167 553.469 163.57 582.799 163.57 595.923L173.847 584.796C170.421 573.84 177.558 551.13 181.554 541.144Z" fill="black"/>
<path d="M107.046 581.372C94.7142 596.436 76.2164 637.863 70.2217 654.981L79.6419 659.26C76.9015 647.62 97.9114 601.343 107.046 581.372Z" fill="black"/>
<path d="M413.975 619.377L434.475 607.377C295.398 560.13 210.957 640.062 184.124 685.996L205.534 687.708C280.895 599.378 373.439 604.826 413.975 619.377Z" fill="black"/>
<path d="M381.091 638.719C329.708 622.97 282.036 660.117 264.622 680.659L226.975 686.877C287.264 614.98 372.812 612.756 406.782 622.456L381.091 638.719Z" fill="black"/>
<path d="M26.5973 226.857C17.9208 194.072 30.4235 147.358 38.0918 127.377C41.5176 131.657 59.5011 149.631 71.4905 154.766C83.4798 159.902 83.4798 179.588 86.9054 189.859C89.6458 198.076 96.611 204.695 99.7511 206.977C143.598 225.465 148.28 252.341 145.139 263.468C116.365 329.887 171.402 349.915 202.517 351.627C258.696 315.336 283.017 343.353 288.155 361.898C309.394 440.642 415.631 526.234 476.149 566.462L466.881 575.877C279.846 467.689 164.836 600.699 123.73 676.875L104.475 670.877L110.028 658.901C120.304 635.62 170.831 579.015 194.81 553.623C196.831 502.117 184.693 466.065 173.372 445.879C167.553 435.503 155.234 432.101 143.579 434.512C116.336 440.149 79.4029 446.159 66.3522 442.354C45.799 436.363 51.7936 420.1 50.0809 408.117C48.3681 396.135 37.2351 391.855 38.9479 386.72C40.3181 382.611 48.0826 377.59 51.7936 375.593C29.1851 376.962 26.3878 362.469 27.8152 355.051C29.2425 351.627 28.329 343.581 13.2567 338.788C-1.81567 333.995 -1.01637 324.238 1.26732 319.958C8.63236 311.928 23.686 285.259 30.7607 272.068C31.0596 271.511 31.6359 271.171 32.2684 271.171H38.9482C39.8941 271.171 40.661 271.937 40.661 272.883V274.595C40.661 275.54 41.4306 276.314 42.3716 276.217C54.4743 274.965 64.5249 261.015 62.0705 263.468C60.392 265.145 47.1754 263.512 37.255 261.924C33.6487 261.347 30.8681 258.479 30.3128 254.871L28.141 240.763C27.9417 239.468 28.4887 238.15 29.6567 237.555C39.2923 232.651 57.8009 233.887 66.3525 235.222C60.939 229.211 43.2474 229.357 32.0552 230.447C29.5912 230.687 27.2304 229.249 26.5973 226.857Z" fill="black"/>
</g>
<defs>
<clipPath id="clip0_128_126">
<rect width="576" height="688" fill="white"/>
</clipPath>
</defs>
</svg>
